<svg width="98" height="91" viewBox="0 0 98 91" fill="none" xmlns="http://www.w3.org/2000/svg">
<g clip-path="url(#clip0_1:554)">
<path d="M46.2517 2.31439C28.9345 2.31439 18.2671 11.8311 18.2376 11.8473C18.2376 11.8473 17.7941 12.3866 17.7112 12.7452C17.0374 15.6592 16.408 19.5646 16.408 22.4145C16.408 46.6282 37.3662 66.2524 62.2189 66.2524C71.7891 66.2524 82.4367 61.7835 89.5629 56.4105C89.7224 56.2904 90.2282 55.4827 90.2282 55.4827C90.2595 55.2958 91.2517 51.4462 91.2517 46.1574C91.2517 21.9433 71.1045 2.31439 46.2517 2.31439Z" fill="#AFE6FF"/>
<path d="M62.215 65.0147C37.3622 65.0147 17.215 45.3855 17.215 21.1719C17.215 17.9713 17.5693 14.8529 18.2376 11.8473C7.88866 19.88 1.25174 32.2637 1.25174 46.1571C1.25174 58.4181 6.41753 69.5036 14.7445 77.4602L77.759 77.459C83.8933 71.6016 88.3275 64.0303 90.2282 55.4824C82.5412 61.4478 72.8061 65.0147 62.215 65.0147Z" fill="#73C8F0"/>
<path d="M55.4627 7.29724H39.4514V71.9737H69.1288V20.6119C69.1288 13.2585 63.0104 7.29724 55.4627 7.29724Z" fill="#2477F9"/>
<path d="M55.3246 2.00458H43.5777C39.1555 2.00458 35.5707 5.49731 35.5707 9.80568V27.6364H55.3246C59.7646 27.6364 63.3638 26.7854 63.3638 22.4596V9.83703C63.3638 5.51123 59.7644 2.00458 55.3246 2.00458Z" fill="#2477F9"/>
<path d="M35.8659 22.4596V9.83703C35.8659 5.51123 39.4651 2.00458 43.9051 2.00458H35.5245C31.0845 2.00458 27.4853 5.51123 27.4853 9.83703V22.4596C27.4853 26.7854 31.0845 27.6364 35.5245 27.6364H43.9051C39.4651 27.6364 35.8659 26.7854 35.8659 22.4596Z" fill="#0540E5"/>
<path d="M41.0751 71.9737V20.6119C41.0751 13.2584 38.778 7.29724 46.3257 7.29724H35.3843C27.8367 7.29724 21.7182 13.2584 21.7182 20.6119V71.9735H41.0751V71.9737Z" fill="#0540E5"/>
<path d="M64.2973 68.0984C64.2973 68.0984 54.0749 68.0984 44.9722 68.0984C37.3067 68.0984 31.0928 74.1527 31.0928 81.6213V87.4484C35.8294 89.0992 40.9325 89.9997 46.2518 89.9997C58.4531 89.9997 69.6072 85.2426 77.7588 77.4587C75.8403 72.0128 70.538 68.0984 64.2973 68.0984Z" fill="#FA870A"/>
<path d="M27.1458 68.1409C21.3708 68.5558 16.5535 72.3265 14.7445 77.46C19.402 81.9103 25.0482 85.3817 31.3325 87.5327V81.9616C31.3325 74.6531 37.1384 68.6699 44.5011 68.1407C44.8424 68.1118 45.0216 68.1014 45.7488 68.0984H33.5034C27.8562 68.1011 27.8529 68.0808 27.1458 68.1409Z" fill="#FA690F"/>
<path d="M32.6026 54.9496C32.6026 61.7462 38.2075 67.3227 45.1834 67.3738C45.2322 67.3741 45.281 67.3743 45.3298 67.3743C55.9969 67.3743 64.6446 58.9492 64.6446 48.5564V45.2579L32.6026 54.9496Z" fill="#0540E5"/>
<path d="M46.2518 79.8556C51.4315 79.8556 55.6305 75.7645 55.6305 70.718V68.0985H36.873V70.718C36.873 75.7645 41.072 79.8556 46.2518 79.8556Z" fill="#F45700"/>
<path d="M52.9883 69.1221C52.9883 72.747 49.9722 75.6854 46.2517 75.6854C42.5312 75.6854 39.5152 72.747 39.5152 69.1221V65.5928L52.9885 54.4211V69.1221H52.9883Z" fill="#FFBE82"/>
<path d="M69.1626 37.6578C69.1626 40.0869 67.1416 42.056 64.6483 42.056H64.3732L64.1028 30.906H64.6483C67.1416 30.906 69.1626 32.8751 69.1626 35.3042V37.6578Z" fill="#FF965A"/>
<path d="M66.4941 36.9531C66.4941 37.9276 65.6833 38.7175 64.6831 38.7175H64.5726L64.4642 34.2443H64.6831C65.6833 34.2443 66.4941 35.0342 66.4941 36.0087V36.9531Z" fill="#EF6A30"/>
<path d="M64.4594 26.1524C64.415 21.7859 60.7693 18.269 56.2874 18.269H46.5779C41.1677 18.269 36.2506 20.3244 32.6026 23.6764V50.7227C32.6026 57.5194 38.2075 63.096 45.1834 63.1469C45.2322 63.1473 45.281 63.1475 45.3298 63.1475C55.9971 63.1475 64.6446 54.7223 64.6446 44.3294L64.4594 26.1524Z" fill="#FFBE82"/>
<path d="M39.5152 65.5928C40.2083 65.7134 40.92 65.7823 41.6478 65.7876C41.6966 65.7879 41.7454 65.7881 41.7943 65.7881C45.9669 65.7881 49.8304 63.9705 52.9881 61.7788V54.4211H39.5149V65.5928H39.5152Z" fill="#EF6A30"/>
<path d="M64.4594 26.1524C64.415 21.7859 60.7693 18.269 56.2874 18.269H46.5779C41.1677 18.269 36.2506 20.3244 32.6026 23.6764V50.7227C32.6026 57.5194 38.2075 63.096 45.1834 63.1469C45.2322 63.1473 45.281 63.1475 45.3298 63.1475C55.9971 63.1475 64.6446 54.7223 64.6446 44.3294L64.4594 26.1524Z" fill="#FFBE82"/>
<path d="M21.668 37.65C21.668 40.0629 23.6756 42.019 26.1522 42.019H26.3169L26.3965 30.9434H26.1522C23.6756 30.9434 21.668 32.8994 21.668 35.3123V37.65Z" fill="#FF965A"/>
<path d="M24.3971 36.9304C24.3971 37.8584 25.1692 38.6107 26.1217 38.6107H26.1849L26.2155 34.3511H26.1215C25.169 34.3511 24.3969 35.1033 24.3969 36.0313V36.9304H24.3971Z" fill="#EF6A30"/>
<path d="M37.2557 37.3143V38.915C37.2557 39.772 37.9691 40.467 38.8487 40.467C39.7283 40.467 40.4417 39.7722 40.4417 38.915V37.3143H37.2557Z" fill="#FF965A"/>
<path d="M50.2646 37.3143V38.915C50.2646 39.772 50.9779 40.467 51.8576 40.467C52.7372 40.467 53.4505 39.7722 53.4505 38.915V37.3143H50.2646Z" fill="#FF965A"/>
<path d="M38.8485 39.1735C37.9689 39.1735 37.2556 38.4787 37.2556 37.6215V36.4769L37.895 35.5409L37.2556 34.605V33.3767C37.2556 32.5197 37.9687 31.8247 38.8485 31.8247C39.7282 31.8247 40.4415 32.5195 40.4415 33.3767V37.6213C40.4415 38.4787 39.7284 39.1735 38.8485 39.1735Z" fill="#373C41"/>
<path d="M51.8576 39.1735C50.9779 39.1735 50.2646 38.4787 50.2646 37.6215V36.1695L50.904 35.2336L50.2646 34.2977V33.3767C50.2646 32.5197 50.9777 31.8247 51.8576 31.8247C52.7372 31.8247 53.4505 32.5195 53.4505 33.3767V37.6213C53.4504 38.4787 52.7372 39.1735 51.8576 39.1735Z" fill="#373C41"/>
<path d="M42.9382 41.8331C42.5421 43.1926 43.2619 44.6734 44.638 45.1199C44.9149 45.2097 45.2112 45.2584 45.5191 45.2584C45.8269 45.2584 46.1232 45.2097 46.4002 45.1199C47.7764 44.6736 48.4961 43.1926 48.1002 41.8331L46.1688 35.2023C45.983 34.5646 45.0552 34.5646 44.8696 35.2023L42.9382 41.8331Z" fill="#FF965A"/>
<path d="M47.1137 18.3023C35.5731 18.2808 26.2045 27.3875 26.2045 38.6313V44.5141C26.2045 55.9675 36.7548 64.8277 48.5754 62.8779C39.5512 61.3823 32.6789 53.7325 32.6789 44.5141C32.6838 36.2625 32.6782 32.4326 32.6773 30.5662C32.6767 29.0889 33.9166 27.8775 35.433 27.8743H35.435H44.7052C50.0999 27.8743 54.4733 23.6135 54.4733 18.3574C54.4731 18.3576 53.0642 18.3134 47.1137 18.3023Z" fill="#FF965A"/>
<path d="M36.0838 10.748C30.6275 10.748 26.2045 15.0575 26.2045 20.3733V26.5805V38.6308C27.6192 38.6308 28.7662 37.5134 28.7662 36.1349V33.0777C28.7662 29.4893 31.7519 26.5805 35.435 26.5805H44.7052C50.0999 26.5805 54.4733 22.3196 54.4733 17.0635V10.748H36.0838Z" fill="#2477F9"/>
<path d="M54.127 18.2685C58.4966 18.2685 62.0828 21.9129 62.0828 26.1702V36.135C62.0828 37.5134 63.2297 38.6309 64.6446 38.6309V17.5308L54.127 18.2685Z" fill="#2477F9"/>
<path d="M51.613 47.892H49.9399L45.5339 48.7832L41.1279 47.892H39.6479C39.1515 47.892 38.7547 48.3141 38.8211 48.7936C38.9478 49.7106 39.2651 50.5689 39.7329 51.3292L48.6543 53.9051C50.6692 52.9415 52.1287 51.045 52.4398 48.7936C52.506 48.3143 52.1094 47.892 51.613 47.892Z" fill="#BE1423"/>
<path d="M39.7336 51.3286C40.9343 53.2799 43.1254 54.5864 45.6304 54.5864C46.7156 54.5864 47.7413 54.3405 48.6539 53.9041C48.2616 51.5068 46.1304 49.6744 43.5595 49.6744C42.0419 49.6744 40.6776 50.3127 39.7336 51.3286Z" fill="#FF3C3C"/>
<path d="M49.9399 48.7302C49.9399 49.2517 49.5059 49.6745 48.9706 49.6745H42.097C41.5618 49.6745 41.1277 49.2517 41.1277 48.7302V47.892H49.9397V48.7302H49.9399Z" fill="white"/>
<path d="M37.8951 37.0998C37.5421 37.0998 37.2557 36.8208 37.2557 36.4768V34.6051C37.2557 34.2612 37.5421 33.9822 37.8951 33.9822C38.2482 33.9822 38.5345 34.2612 38.5345 34.6051V36.4768C38.5345 36.8208 38.2482 37.0998 37.8951 37.0998Z" fill="white"/>
<path d="M50.904 36.793C50.5509 36.793 50.2646 36.514 50.2646 36.17V34.2984C50.2646 33.9544 50.5509 33.6754 50.904 33.6754C51.257 33.6754 51.5434 33.9544 51.5434 34.2984V36.17C51.5434 36.514 51.257 36.793 50.904 36.793Z" fill="white"/>
<path d="M55.5305 7.13934H42.0388V10.7682H55.5305C59.9705 10.7682 63.5697 14.2749 63.5697 18.6007V14.972C63.5697 10.6462 59.9703 7.13934 55.5305 7.13934Z" fill="#FF6196"/>
<path d="M42.1015 7.13989H35.7303C31.2904 7.13989 27.6912 10.6465 27.6912 14.9723V18.6012C27.6912 14.2754 31.2904 10.7688 35.7303 10.7688H42.1015V7.13989Z" fill="#FF4181"/>
<path d="M30.2218 10.6507C30.2218 10.6507 30.5837 0.553985 33.6708 0.0219112C36.7579 -0.510163 41.1279 8.77092 41.1279 8.77092L30.2218 10.6507Z" fill="#FF4181"/>
<path d="M32.2036 10.309C34.4749 8.79894 36.7646 8.43859 39.0707 9.1253C38.0143 7.208 36.0536 4.11154 34.5318 4.37379C33.0103 4.63622 32.4215 8.17211 32.2036 10.309Z" fill="white"/>
<path d="M60.8327 10.6507C60.8327 10.6507 60.4708 0.553985 57.3837 0.0219112C54.2967 -0.510163 49.9267 8.77092 49.9267 8.77092L60.8327 10.6507Z" fill="#FF6196"/>
<path d="M58.8509 10.309C56.376 8.87731 54.1009 8.56082 51.9839 9.1253C53.0403 7.208 55.001 4.11154 56.5228 4.37379C58.0443 4.63622 58.6331 8.17211 58.8509 10.309Z" fill="white"/>
<path d="M52.3606 44.2679C52.9981 44.2679 53.5149 43.7644 53.5149 43.1434C53.5149 42.5223 52.9981 42.0188 52.3606 42.0188C51.7232 42.0188 51.2064 42.5223 51.2064 43.1434C51.2064 43.7644 51.7232 44.2679 52.3606 44.2679Z" fill="#FF965A"/>
<path d="M56.611 42.0188C57.0509 42.0188 57.4075 41.6714 57.4075 41.2428C57.4075 40.8142 57.0509 40.4668 56.611 40.4668C56.1711 40.4668 55.8145 40.8142 55.8145 41.2428C55.8145 41.6714 56.1711 42.0188 56.611 42.0188Z" fill="#FF965A"/>
<path d="M59.2728 46.2331C59.8298 46.2331 60.2814 45.7932 60.2814 45.2505C60.2814 44.7079 59.8298 44.2679 59.2728 44.2679C58.7159 44.2679 58.2643 44.7079 58.2643 45.2505C58.2643 45.7932 58.7159 46.2331 59.2728 46.2331Z" fill="#FF965A"/>
<path d="M55.0739 46.2333C55.4829 46.2333 55.8145 45.9103 55.8145 45.5117C55.8145 45.1132 55.4829 44.7902 55.0739 44.7902C54.6648 44.7902 54.3332 45.1132 54.3332 45.5117C54.3332 45.9103 54.6648 46.2333 55.0739 46.2333Z" fill="#FF965A"/>
<path d="M39.0027 44.4505C39.6402 44.4505 40.157 43.947 40.157 43.326C40.157 42.7049 39.6402 42.2014 39.0027 42.2014C38.3652 42.2014 37.8485 42.7049 37.8485 43.326C37.8485 43.947 38.3652 44.4505 39.0027 44.4505Z" fill="#FF965A"/>
<path d="M34.7524 42.2011C35.1923 42.2011 35.5489 41.8536 35.5489 41.4251C35.5489 40.9965 35.1923 40.649 34.7524 40.649C34.3125 40.649 33.9559 40.9965 33.9559 41.4251C33.9559 41.8536 34.3125 42.2011 34.7524 42.2011Z" fill="#FF965A"/>
<path d="M32.0905 46.4159C32.6475 46.4159 33.099 45.976 33.099 45.4333C33.099 44.8906 32.6475 44.4507 32.0905 44.4507C31.5335 44.4507 31.0819 44.8906 31.0819 45.4333C31.0819 45.976 31.5335 46.4159 32.0905 46.4159Z" fill="#FF965A"/>
<path d="M36.2895 46.4157C36.6985 46.4157 37.0301 46.0926 37.0301 45.6941C37.0301 45.2956 36.6985 44.9725 36.2895 44.9725C35.8805 44.9725 35.5489 45.2956 35.5489 45.6941C35.5489 46.0926 35.8805 46.4157 36.2895 46.4157Z" fill="#FF965A"/>
<path d="M64.8633 85.4098C64.8633 84.1413 63.8077 83.1129 62.5058 83.1129C61.2039 83.1129 60.1484 84.1413 60.1484 85.4098C60.1484 86.2932 60.6603 87.0601 61.4109 87.4444C62.5431 87.0495 63.6548 86.6115 64.7441 86.1324C64.8213 85.9052 64.8633 85.6623 64.8633 85.4098Z" fill="#FA690F"/>
<path d="M52.3116 87.7066C53.6136 87.7066 54.6691 86.6783 54.6691 85.4098C54.6691 84.1412 53.6136 83.1129 52.3116 83.1129C51.0096 83.1129 49.9542 84.1412 49.9542 85.4098C49.9542 86.6783 51.0096 87.7066 52.3116 87.7066Z" fill="#FA690F"/>
<path d="M42.1173 87.7066C43.4193 87.7066 44.4747 86.6783 44.4747 85.4098C44.4747 84.1412 43.4193 83.1129 42.1173 83.1129C40.8153 83.1129 39.7598 84.1412 39.7598 85.4098C39.7598 86.6783 40.8153 87.7066 42.1173 87.7066Z" fill="#FA690F"/>
<path d="M31.9231 83.1133C31.6304 83.1133 31.3515 83.1677 31.0928 83.2626V87.5574C31.3513 87.6524 31.6304 87.7068 31.9231 87.7068C33.225 87.7068 34.2805 86.6784 34.2805 85.41C34.2805 84.1415 33.225 83.1133 31.9231 83.1133Z" fill="#FA690F"/>
<path d="M31.3325 83.1891C30.3169 83.4448 29.5656 84.3409 29.5656 85.4104C29.5656 86.4798 30.3169 87.3759 31.3325 87.6316V83.1891Z" fill="#F45700"/>
<path d="M70.6985 69.5817C70.4743 69.9332 70.3427 70.3466 70.3427 70.7908C70.3427 72.0592 71.3983 73.0876 72.7002 73.0876C73.4143 73.0876 74.0529 72.7769 74.4852 72.2884C73.3906 71.1943 72.1123 70.277 70.6985 69.5817Z" fill="#FA690F"/>
<path d="M62.5058 73.0877C63.8078 73.0877 64.8633 72.0594 64.8633 70.7909C64.8633 69.5223 63.8078 68.494 62.5058 68.494C61.2038 68.494 60.1484 69.5223 60.1484 70.7909C60.1484 72.0594 61.2038 73.0877 62.5058 73.0877Z" fill="#FA690F"/>
<path d="M31.9231 73.0877C33.2251 73.0877 34.2806 72.0594 34.2806 70.7909C34.2806 69.5223 33.2251 68.494 31.9231 68.494C30.6211 68.494 29.5656 69.5223 29.5656 70.7909C29.5656 72.0594 30.6211 73.0877 31.9231 73.0877Z" fill="#F45700"/>
<path d="M21.7287 73.0874C23.0307 73.0874 24.0862 72.059 24.0862 70.7906C24.0862 70.0598 23.7348 69.4103 23.1888 68.9895C21.8077 69.4964 20.5309 70.2088 19.3928 71.0847C19.5414 72.214 20.5293 73.0874 21.7287 73.0874Z" fill="#F45700"/>
<path d="M67.7848 80.7142C69.0868 80.7142 70.1422 79.6858 70.1422 78.4173C70.1422 77.1488 69.0868 76.1205 67.7848 76.1205C66.4828 76.1205 65.4273 77.1488 65.4273 78.4173C65.4273 79.6858 66.4828 80.7142 67.7848 80.7142Z" fill="#FA690F"/>
<path d="M57.5906 80.7142C58.8926 80.7142 59.9481 79.6858 59.9481 78.4173C59.9481 77.1488 58.8926 76.1205 57.5906 76.1205C56.2886 76.1205 55.2331 77.1488 55.2331 78.4173C55.2331 79.6858 56.2886 80.7142 57.5906 80.7142Z" fill="#FA690F"/>
<path d="M37.202 80.7142C38.504 80.7142 39.5595 79.6858 39.5595 78.4173C39.5595 77.1488 38.504 76.1205 37.202 76.1205C35.9 76.1205 34.8446 77.1488 34.8446 78.4173C34.8446 79.6858 35.9 80.7142 37.202 80.7142Z" fill="#FA690F"/>
<path d="M27.0077 80.7142C28.3097 80.7142 29.3651 79.6858 29.3651 78.4173C29.3651 77.1488 28.3097 76.1205 27.0077 76.1205C25.7057 76.1205 24.6502 77.1488 24.6502 78.4173C24.6502 79.6858 25.7057 80.7142 27.0077 80.7142Z" fill="#F45700"/>
</g>
<defs>
<clipPath id="clip0_1:554">
<rect width="97.3587" height="90.8054" fill="white"/>
</clipPath>
</defs>
</svg>
