<svg width="90" height="87" viewBox="0 0 90 87" fill="none" xmlns="http://www.w3.org/2000/svg">
<path d="M45.2463 2.27777C28.5484 2.27777 18.2624 11.3469 18.2339 11.3623C18.2339 11.3623 17.8064 11.8763 17.7264 12.218C17.0767 14.9949 16.4698 18.7166 16.4698 21.4324C16.4698 44.5072 36.6785 63.2083 60.6426 63.2083C69.8705 63.2083 80.1373 58.9497 87.0088 53.8294C87.1625 53.7149 87.6502 52.9452 87.6502 52.9452C87.6804 52.7671 88.6372 49.0986 88.6372 44.0585C88.6372 20.9835 69.2104 2.27777 45.2463 2.27777Z" fill="#AFE6FF"/>
<path d="M60.6387 62.0291C36.6747 62.0291 17.2479 43.3231 17.2479 20.2483C17.2479 17.1983 17.5895 14.2265 18.2339 11.3622C8.25507 19.0172 1.85547 30.8184 1.85547 44.0584C1.85547 55.7427 6.83654 66.3068 14.8658 73.8893L75.6269 73.8881C81.5419 68.3062 85.8176 61.091 87.6503 52.9451C80.2381 58.6299 70.8512 62.0291 60.6387 62.0291Z" fill="#73C8F0"/>
<g clip-path="url(#clip0_1:650)">
<path d="M63.5145 29.3395H26.4855C26.4855 35.908 15.5222 41.847 15.5222 51.6871C15.5222 61.5273 24.7952 67.7666 24.7952 67.7666H65.205C65.205 67.7666 74.478 61.5273 74.478 51.6871C74.478 41.847 63.5145 35.908 63.5145 29.3395Z" fill="#CE684D"/>
<path d="M62.4985 14.1576C60.2749 7.19109 54.5643 0.0722656 48.3163 0.0722656C46.1658 0.0722656 45 2.10336 45 2.10336C45 2.10336 43.8342 0.0722656 41.6837 0.0722656C35.4356 0.0722656 29.7248 7.1916 27.5013 14.1583C26.871 15.9399 26.5263 17.8488 26.5189 19.8342C26.5187 19.8558 26.518 19.878 26.518 19.8997V24.9903H63.4823V19.8997C63.4822 17.8904 63.1359 15.959 62.4985 14.1576Z" fill="#E07763"/>
<path d="M36.7235 24.9899V22.8142C30.9491 17.4777 31.188 5.41993 36.6702 1.56152C32.5352 4.01153 29.1076 9.12431 27.5011 14.1582C26.8708 15.9398 26.5261 17.8487 26.5187 19.8341C26.5185 19.8558 26.5178 19.878 26.5178 19.8996V24.9902H36.7235V24.9899Z" fill="#CE684D"/>
<path d="M75.7076 59.7257C74.4353 58.6439 71.8729 57.6257 68.9268 56.7327H21.0732C18.1273 57.6257 15.5649 58.6439 14.2924 59.7257C12.8449 60.9563 11.1463 64.5891 9.54527 68.8064C17.3155 79.6355 30.2959 86.7328 45 86.7328C59.7041 86.7328 72.6845 79.6355 80.4547 68.8064C78.8537 64.5891 77.1551 60.9562 75.7076 59.7257Z" fill="#FFDD40"/>
<path d="M30.4829 70.2425C30.9213 64.3828 34.207 59.798 38.3741 56.7322H21.073C18.1271 57.6252 15.5647 58.6434 14.2923 59.7252C12.8447 60.9559 11.1461 64.5886 9.5451 68.8059C17.3155 79.6352 30.2959 86.7325 45 86.7325C36.2073 86.7325 29.8267 79.015 30.4829 70.2425Z" fill="#FFC839"/>
<path d="M21.2365 79.8487C21.2233 79.8128 19.6951 75.6471 22.0635 70.7733C22.5051 69.8645 21.2818 69.0546 20.5617 69.7795C19.054 71.2971 17.5678 73.5318 16.9429 76.7198C18.3027 77.8459 19.7369 78.8911 21.2365 79.8487Z" fill="#FFB73B"/>
<path d="M68.7635 79.8487C68.7767 79.8128 70.3049 75.6471 67.9365 70.7733C67.4949 69.8645 68.7182 69.0546 69.4383 69.7795C70.946 71.2971 72.4322 73.5318 73.0571 76.7198C71.6973 77.8459 70.2631 78.8911 68.7635 79.8487Z" fill="#FFC839"/>
<path d="M24.4603 55.7944C23.3093 56.0878 22.1648 56.4014 21.0732 56.7323C22.0637 60.1742 24.5561 63.2833 28.3337 65.7081C32.8889 68.6322 38.8786 70.2427 45.1993 70.2427C51.5201 70.2427 57.5098 68.6323 62.065 65.7081C65.8016 63.3095 68.2815 60.2417 69.2935 56.8445C68.0931 56.4721 66.821 56.1208 65.5406 55.7944H24.4603Z" fill="#FCECA9"/>
<path d="M53.5289 53.3166V32.866H36.4711V53.3166C36.2093 53.3584 30.2498 54.3184 24.4591 55.7942C26.2726 62.0891 34.868 66.8572 45.1993 66.8572C55.4785 66.8572 64.0387 62.1371 65.9111 55.8895C60.0068 54.3601 53.7963 53.3592 53.5289 53.3166Z" fill="#FEB98A"/>
<path d="M53.5289 44.0984V32.866H36.4711V53.3166C36.2094 53.3584 30.2498 54.3184 24.4591 55.7942C25.4106 59.0967 28.2308 61.9777 32.1871 63.9715C34.8013 58.6318 39.9565 54.9663 45 53.3164C51.8256 51.0839 53.5289 44.0984 53.5289 44.0984Z" fill="#FCA870"/>
<path d="M58.1938 27.0802C58.1938 27.0802 60.0193 22.8006 63.2733 23.7941C66.5274 24.7876 63.1946 34.062 56.8445 34.6462L58.1938 27.0802Z" fill="#FEB98A"/>
<path d="M31.8062 27.0802C31.8062 27.0802 29.9807 22.8006 26.7267 23.7941C23.4726 24.7876 26.8054 34.062 33.1555 34.6462L31.8062 27.0802Z" fill="#FCA870"/>
<path d="M44.962 14.0336C44.962 14.0336 41.5009 24.2639 29.6105 24.2842C29.6054 24.4924 29.6019 24.7012 29.6019 24.9118C29.6019 35.8298 36.4959 48.6342 44.9998 48.6342C53.5038 48.6342 60.3978 35.8296 60.3978 24.9118C60.3978 24.7012 60.3942 24.4924 60.3891 24.2842C48.4989 24.2639 44.962 14.0336 44.962 14.0336Z" fill="#FFC9A4"/>
<path d="M36.6333 24.9116C36.6333 24.1983 36.6662 23.5001 36.7235 22.8145C34.7836 23.6978 32.4353 24.279 29.6105 24.284C29.6054 24.4921 29.6019 24.701 29.6019 24.9116C29.6019 35.8296 36.4959 48.634 44.9998 48.634C46.2094 48.634 47.3862 48.3742 48.5154 47.8984C41.7057 45.0291 36.6333 34.2766 36.6333 24.9116Z" fill="#FEB98A"/>
<path d="M42.5413 32.6457L44.0242 30.3707C44.4758 29.6779 45.5242 29.6779 45.9758 30.3707L47.4586 32.6457C47.9401 33.3845 47.3887 34.3447 46.4829 34.3447H43.5173C42.6113 34.3445 42.0599 33.3843 42.5413 32.6457Z" fill="#FEB98A"/>
<path d="M41.3761 40.8414H48.6241C49.3467 40.2283 49.8999 39.435 50.2079 38.5342C50.4863 37.7199 49.8442 36.8833 48.9539 36.8833H41.0463C40.156 36.8833 39.5139 37.7199 39.7923 38.5342C40.1003 39.435 40.6535 40.2283 41.3761 40.8414Z" fill="#003060"/>
<path d="M48.6239 40.8416C47.6583 41.6623 46.389 42.1615 45 42.1615C43.611 42.1615 42.3415 41.6625 41.3761 40.8416C42.3429 40.0209 43.611 39.5217 45 39.5217C46.389 39.5217 47.6571 40.0209 48.6239 40.8416Z" fill="#FF4155"/>
<path d="M54.6678 27.5067C54.6753 26.9152 54.4268 26.3213 53.9221 25.8922C53.1003 25.1935 51.8409 25.1935 51.0191 25.8922C50.5144 26.3213 50.266 26.9152 50.2734 27.5067C50.2831 28.2748 51.2629 28.6435 51.827 28.1003C52.1824 27.7581 52.7586 27.7581 53.1141 28.1003C53.6783 28.6437 54.6581 28.275 54.6678 27.5067Z" fill="#003060"/>
<path d="M35.3322 27.5067C35.3246 26.9152 35.5732 26.3213 36.0779 25.8922C36.8996 25.1935 38.1591 25.1935 38.9809 25.8922C39.4856 26.3213 39.7339 26.9152 39.7265 27.5067C39.7169 28.2748 38.7371 28.6435 38.173 28.1003C37.8176 27.7581 37.2414 27.7581 36.8859 28.1003C36.3217 28.6437 35.3419 28.275 35.3322 27.5067Z" fill="#003060"/>
<path d="M39.2871 23.5936H35.7715C35.0434 23.5936 34.4531 23.0253 34.4531 22.3242C34.4531 21.6231 35.0434 21.0547 35.7715 21.0547H39.2871C40.0152 21.0547 40.6055 21.6231 40.6055 22.3242C40.6055 23.0253 40.0152 23.5936 39.2871 23.5936Z" fill="#AA493C"/>
<path d="M54.2285 23.5936H50.7129C49.9848 23.5936 49.3945 23.0253 49.3945 22.3242C49.3945 21.6231 49.9848 21.0547 50.7129 21.0547H54.2285C54.9566 21.0547 55.5469 21.6231 55.5469 22.3242C55.5469 23.0253 54.9566 23.5936 54.2285 23.5936Z" fill="#AA493C"/>
</g>
<defs>
<clipPath id="clip0_1:650">
<rect width="90" height="86.6602" fill="white" transform="translate(0 0.0722656)"/>
</clipPath>
</defs>
</svg>
