<svg width="113" height="113" viewBox="0 0 113 113" fill="none" xmlns="http://www.w3.org/2000/svg">
<path d="M112.999 56.5002C112.999 79.1301 99.6956 98.6537 80.4822 107.672C74.5165 110.474 67.9809 112.262 61.0954 112.815C59.5798 112.937 58.0487 112.999 56.5013 112.999C54.6848 112.999 52.8831 112.914 51.108 112.743C48.839 112.531 46.6087 112.181 44.4276 111.706C39.9792 110.737 35.7291 109.246 31.7419 107.299C19.7407 101.439 10.1249 91.4516 4.74285 79.1853C1.69449 72.2417 0.00392151 64.5688 0.00392151 56.5002C0.00392151 25.2956 25.2986 0 56.5013 0C87.7048 0 112.999 25.2956 112.999 56.5002Z" fill="#5EBFCF"/>
<path d="M107.923 72.8549V79.9278C102.356 92.1295 92.5757 102.003 80.4435 107.689C78.246 108.718 75.97 109.61 73.6269 110.353C70.9914 111.195 68.2724 111.843 65.4826 112.288C65.4705 112.289 65.4568 112.292 65.4455 112.292V72.8549C65.4455 64.4491 71.9182 57.5538 80.1555 56.89C80.5891 56.8529 81.0254 56.8365 81.465 56.8365H91.8981C93.1318 56.8365 94.3336 56.9727 95.4862 57.2383C102.607 58.866 107.923 65.2423 107.923 72.8549Z" fill="#BFD5DE"/>
<path d="M107.926 72.8548V79.9277C102.36 92.1294 92.5792 102.002 80.4469 107.689C78.2495 108.718 75.9735 109.61 73.6303 110.353V72.8548C73.6303 64.0085 80.8047 56.8365 89.6533 56.8365H91.9033C100.754 56.8365 107.926 64.0085 107.926 72.8548Z" fill="#DDE8ED"/>
<path d="M71.0054 39.167C71.0054 41.8129 69.0717 44.007 66.5406 44.4148C66.2648 44.4596 65.9794 44.4829 65.6897 44.4829C62.7526 44.4829 60.3741 42.1034 60.3741 39.167C60.3741 36.2306 62.7526 33.8511 65.6897 33.8511C65.9794 33.8511 66.2648 33.8744 66.5406 33.9192C69.0717 34.327 71.0054 36.5211 71.0054 39.167Z" fill="#D3A489"/>
<path d="M90.9845 62.616L86.6835 69.514L82.3833 62.616" fill="#F74F4F"/>
<path d="M92.4731 89.0015L86.6876 96.3046L80.8995 89.0015L86.6884 67.7191L92.4731 89.0015Z" fill="#92DCCE"/>
<path d="M71.0053 39.1672C71.0053 41.813 69.0716 44.0071 66.5405 44.4149C66.081 42.7424 65.8353 40.9837 65.8353 39.1672C65.8353 37.3516 66.081 35.592 66.5405 33.9195C69.0716 34.3272 71.0053 36.5213 71.0053 39.1672Z" fill="#BF8E75"/>
<path d="M67.5881 39.1671C67.5881 40.2163 66.7372 41.0672 65.688 41.0672C64.6388 41.0672 63.7879 40.2163 63.7879 39.1671C63.7879 38.1179 64.6388 37.267 65.688 37.267C66.7372 37.267 67.5881 38.1179 67.5881 39.1671Z" fill="#BF8E75"/>
<path d="M86.6815 63.3935L79.4683 67.4024L77.2743 57.1965L81.7563 54.5567" fill="#BFD5DE"/>
<path d="M86.6894 63.3935L93.9017 67.4024L96.0958 57.1965L91.6146 54.5567" fill="#BFD5DE"/>
<path d="M102.364 39.167C102.364 41.8129 104.297 44.007 106.828 44.4148C107.105 44.4596 107.39 44.4829 107.68 44.4829C110.617 44.4829 112.995 42.1034 112.995 39.167C112.995 36.2306 110.617 33.8511 107.68 33.8511C107.39 33.8511 107.105 33.8744 106.828 33.9192C104.297 34.327 102.364 36.5211 102.364 39.167Z" fill="#D3A489"/>
<path d="M102.365 39.1671C102.365 41.813 104.297 44.0071 106.828 44.4149C107.289 42.7423 107.535 40.9836 107.535 39.1671C107.535 37.3514 107.289 35.5918 106.828 33.9193C104.297 34.3271 102.365 36.5212 102.365 39.1671Z" fill="#BF8E75"/>
<path d="M109.583 39.1671C109.583 40.2163 108.732 41.0673 107.683 41.0673C106.634 41.0673 105.783 40.2163 105.783 39.1671C105.783 38.1179 106.634 37.267 107.683 37.267C108.732 37.267 109.583 38.1179 109.583 39.1671Z" fill="#BF8E75"/>
<path d="M106.466 36.3421C106.466 46.1842 99.2763 54.3494 89.8631 55.865C88.8303 56.0348 87.7699 56.1202 86.6888 56.1202C75.7652 56.1202 66.9106 47.2661 66.9106 36.3421C66.9106 31.1737 68.7064 23.4145 71.9513 19.891C75.5661 15.9675 80.9335 16.5632 86.6888 16.5632C87.7699 16.5632 88.8303 16.6494 89.8631 16.8193C99.2763 18.3349 106.466 26.4992 106.466 36.3421Z" fill="#BF8E75"/>
<path d="M92.4027 50.6636V57.6787C92.4027 60.2469 90.7095 62.4178 88.3767 63.1385C87.843 63.304 87.274 63.3937 86.6861 63.3937C83.5291 63.3937 80.9704 60.8358 80.9704 57.6787V50.6636H92.4027Z" fill="#BF8E75"/>
<path d="M92.4024 57.2348V57.6788C92.4024 60.247 90.7093 62.4178 88.3764 63.1393C86.2721 62.4919 84.6901 60.6625 84.3979 58.4236C84.7798 58.4469 85.1634 58.459 85.5496 58.459C86.6315 58.459 87.6911 58.3728 88.7239 58.2029C89.9963 57.9986 91.2257 57.671 92.4024 57.2348Z" fill="#D3A489"/>
<path d="M106.467 36.3423C106.467 46.1844 99.2766 54.3495 89.8634 55.8652C80.4493 54.3495 73.2594 46.1844 73.2594 36.3423C73.2594 30.2816 75.9853 24.8571 80.2803 21.2284C82.9571 18.9645 86.2469 17.4014 89.8634 16.8186C98.6395 18.2317 105.485 25.4261 106.369 34.3698C106.434 35.019 106.467 35.6776 106.467 36.3423Z" fill="#D3A489"/>
<path d="M86.6896 46.0833C85.0335 46.0833 83.3774 45.6678 81.8678 44.8384C81.442 44.6039 81.2859 44.0693 81.5204 43.6434C81.7549 43.2175 82.2894 43.0624 82.7153 43.296C85.2042 44.6642 88.1749 44.6642 90.6638 43.296C91.0888 43.0624 91.6242 43.2175 91.8587 43.6434C92.0923 44.0693 91.9371 44.6039 91.5113 44.8384C90.0017 45.6678 88.3456 46.0833 86.6896 46.0833Z" fill="#BF8E75"/>
<path d="M82.4705 35.1902C82.4705 36.4299 81.4662 37.4343 80.2274 37.4343C78.9877 37.4343 77.9834 36.4299 77.9834 35.1902C77.9834 33.9513 78.9877 32.947 80.2274 32.947C81.4662 32.947 82.4705 33.9513 82.4705 35.1902Z" fill="#3D4159"/>
<path d="M95.3841 35.1902C95.3841 36.4299 94.3797 37.4343 93.1409 37.4343C91.9021 37.4343 90.8969 36.4299 90.8969 35.1902C90.8969 33.9513 91.9021 32.947 93.1409 32.947C94.3797 32.947 95.3841 33.9513 95.3841 35.1902Z" fill="#3D4159"/>
<path d="M82.0152 34.7943C82.0152 35.3254 81.5841 35.7556 81.053 35.7556C80.522 35.7556 80.0918 35.3254 80.0918 34.7943C80.0918 34.2632 80.522 33.833 81.053 33.833C81.5841 33.833 82.0152 34.2632 82.0152 34.7943Z" fill="white"/>
<path d="M95.0367 34.7943C95.0367 35.3254 94.6056 35.7556 94.0745 35.7556C93.5435 35.7556 93.1133 35.3254 93.1133 34.7943C93.1133 34.2632 93.5435 33.833 94.0745 33.833C94.6056 33.833 95.0367 34.2632 95.0367 34.7943Z" fill="white"/>
<path d="M88.9272 40.8398H84.44C83.9055 40.8398 83.4728 40.4062 83.4728 39.8716C83.4728 39.3371 83.9055 38.9044 84.44 38.9044H88.9272C89.4617 38.9044 89.8954 39.3371 89.8954 39.8716C89.8954 40.4062 89.4617 40.8398 88.9272 40.8398Z" fill="#BF8E75"/>
<path d="M93.1978 72.3298H101.82V74.9697H93.1978V72.3298Z" fill="#BFD5DE"/>
<path d="M85.5295 10.9128C91.5211 11.3412 96.3316 16.1812 96.6359 22.2739L96.6928 23.4179H100.139L101.996 35.7619L106.491 34.3704L105.888 22.2739C105.569 15.8743 100.276 10.8585 93.8703 10.8817L85.5295 10.9128Z" fill="#FFCD4F"/>
<path d="M105.507 6.13904C110.278 10.91 110.278 18.6459 105.507 23.4169C100.736 28.1879 93.0005 28.1879 88.2296 23.4169L105.507 6.13904Z" fill="#FFCD4F"/>
<path d="M88.2297 23.4171H73.2353L71.3783 35.7619L66.8825 34.3704L67.4859 22.2739C67.8041 15.8752 73.0973 10.8576 79.5036 10.8817L101.159 10.9636L104.022 16.1166" fill="#FFCD4F"/>
<path d="M87.8396 10.9128C81.8489 11.3412 77.0384 16.1812 76.7333 22.2739L76.6764 23.4179H73.2306L71.3736 35.7619L66.8778 34.3704L67.4821 22.2739C67.8002 15.8743 73.0935 10.8585 79.4989 10.8817L87.8396 10.9128Z" fill="#FFCD4F"/>
<path d="M44.4229 73.3281V111.707C26.5948 107.825 11.9098 95.5287 4.73807 79.1854V73.3281C4.73807 66.4026 9.43994 60.5746 15.8272 58.8685C16.0608 58.8038 16.2953 58.7461 16.5359 58.6952C17.1695 58.5573 17.8204 58.4624 18.4816 58.4098C18.8851 58.3771 19.2937 58.359 19.7066 58.359H29.4544C30.5449 58.359 31.6053 58.4736 32.6295 58.6952C32.6898 58.7073 32.7467 58.7211 32.8045 58.7349C32.9777 58.7737 33.1484 58.815 33.3191 58.8616C33.326 58.8642 33.326 58.8642 33.3329 58.8659C35.0183 59.3159 36.5865 60.0539 37.9796 61.0221C41.8746 63.7249 44.4229 68.2286 44.4229 73.3281Z" fill="#92DCCE"/>
<path d="M33.3693 58.6964L33.3331 58.8662L28.5579 81.0693C28.3114 81.0909 28.0631 81.1098 27.8148 81.1271C27.4657 81.1495 27.1139 81.171 26.7605 81.1865C26.038 81.221 25.3121 81.2383 24.5828 81.2383C23.8336 81.2383 23.0905 81.221 22.3508 81.1848C22.0164 81.1693 21.6819 81.1503 21.3474 81.1253C21.0974 81.1081 20.8491 81.0909 20.6008 81.0702L15.8282 58.8679L15.792 58.6964H33.3693Z" fill="#66BAED"/>
<path d="M28.6041 63.7602L24.5859 70.2055L20.5677 63.7602" fill="#DDE8ED"/>
<path d="M27.8146 81.127C27.4655 81.1495 25.312 92.5382 24.5818 92.5382C23.8326 92.5382 21.6817 81.1503 21.3472 81.1253L24.5818 68.5279L27.8146 81.127Z" fill="#DDE8ED"/>
<path d="M24.5802 64.4871L17.8421 68.2321L15.792 58.697L19.9792 56.2305" fill="#2BA1CF"/>
<path d="M24.5779 64.4871L31.3169 68.2321L33.367 58.697L29.1798 56.2305" fill="#2BA1CF"/>
<path d="M33.6296 71.5634H35.7668L26.5958 95.3004L24.7906 99.9749L22.7888 95.0013L24.6311 88.675L33.3253 58.8617L33.3762 58.6953L37.9858 60.2015L33.6296 71.5634Z" fill="#2A2F4F"/>
<path d="M26.5929 95.3004L24.7877 99.9749L22.7859 95.0013L13.3519 71.5634H15.4917L11.1338 60.2015L15.7451 58.6953L15.7943 58.8617L24.6282 88.675L26.5929 95.3004Z" fill="#2A2F4F"/>
<path d="M29.9239 52.5931V59.1479C29.9239 61.5472 28.342 63.5749 26.1626 64.2482C25.6643 64.4034 25.1324 64.487 24.5833 64.487C21.634 64.487 19.2434 62.0972 19.2434 59.147V52.5931H29.9239Z" fill="#EAB599"/>
<path d="M29.9247 58.7323V59.1478C29.9247 61.5471 28.3427 63.5748 26.1633 64.2481C24.1978 63.6438 22.7193 61.9342 22.446 59.8427C22.8029 59.8643 23.1615 59.8755 23.5219 59.8755C24.5323 59.8755 25.5228 59.7953 26.4875 59.6367C27.6763 59.4461 28.8255 59.1401 29.9247 58.7323Z" fill="#F6CAAE"/>
<path d="M9.93222 41.8522C9.93222 44.3248 8.12699 46.3749 5.76226 46.7551C5.50363 46.7973 5.23724 46.8189 4.96654 46.8189C2.22249 46.8189 0 44.5963 0 41.8522C0 39.1089 2.22249 36.8855 4.96654 36.8855C5.23724 36.8855 5.50363 36.9079 5.76226 36.9493C8.12699 37.3303 9.93222 39.3796 9.93222 41.8522Z" fill="#F6CAAE"/>
<path d="M9.92913 41.8517C9.92913 44.3243 8.12389 46.3744 5.75916 46.7546C5.32897 45.1925 5.09966 43.5484 5.09966 41.8517C5.09966 40.1551 5.32897 38.511 5.75916 36.9489C8.12389 37.3299 9.92913 39.3792 9.92913 41.8517Z" fill="#EAB599"/>
<path d="M6.74326 41.8521C6.74326 42.8324 5.9484 43.6272 4.9682 43.6272C3.988 43.6272 3.19315 42.8324 3.19315 41.8521C3.19315 40.8719 3.988 40.077 4.9682 40.077C5.9484 40.077 6.74326 40.8719 6.74326 41.8521Z" fill="#EAB599"/>
<path d="M39.2288 41.8522C39.2288 44.3248 41.0349 46.3749 43.3997 46.7551C43.6583 46.7973 43.9238 46.8189 44.1954 46.8189C46.9386 46.8189 49.1611 44.5963 49.1611 41.8522C49.1611 39.1089 46.9386 36.8855 44.1954 36.8855C43.9238 36.8855 43.6583 36.9079 43.3997 36.9493C41.0349 37.3303 39.2288 39.3796 39.2288 41.8522Z" fill="#F6CAAE"/>
<path d="M39.2288 41.8517C39.2288 44.3243 41.0349 46.3744 43.3997 46.7546C43.829 45.1925 44.0583 43.5484 44.0583 41.8517C44.0583 40.1551 43.829 38.511 43.3997 36.9489C41.0349 37.3299 39.2288 39.3792 39.2288 41.8517Z" fill="#EAB599"/>
<path d="M43.0647 32.1762V39.2129C43.0647 48.4083 36.3473 56.0364 27.5522 57.452C27.5229 57.4572 27.491 57.4615 27.4617 57.4667C26.5263 57.6167 25.5659 57.6908 24.5866 57.6908C14.3819 57.6908 6.10925 49.4179 6.10925 39.2129V32.1762C6.10925 30.0269 6.47564 27.9621 7.15325 26.0439C9.68006 18.8529 16.532 13.6965 24.5866 13.6965H24.5874C25.5659 13.6965 26.528 13.7724 27.4651 13.9198C36.3033 15.3018 43.0647 22.9497 43.0647 32.1762Z" fill="#EAB599"/>
<path d="M45.9712 41.8521C45.9712 42.8324 45.1772 43.6272 44.197 43.6272C43.216 43.6272 42.422 42.8324 42.422 41.8521C42.422 40.8719 43.216 40.077 44.197 40.077C45.1772 40.077 45.9712 40.8719 45.9712 41.8521Z" fill="#EAB599"/>
<path d="M43.0626 32.1762V39.2129C43.0626 48.4083 36.3452 56.0365 27.55 57.4521C27.5207 57.4573 27.4888 57.4616 27.4595 57.4667C18.6213 56.0856 11.8616 48.4377 11.8616 39.2129V32.1762C11.8616 22.9497 18.623 15.3017 27.463 13.9197C36.3012 15.3017 43.0626 22.9497 43.0626 32.1762Z" fill="#F6CAAE"/>
<path d="M20.6512 38.1367C20.6512 39.2937 19.7124 40.2325 18.5546 40.2325C17.3976 40.2325 16.4588 39.2937 16.4588 38.1367C16.4588 36.9789 17.3976 36.0401 18.5546 36.0401C19.7124 36.0401 20.6512 36.9789 20.6512 38.1367Z" fill="#3D4159"/>
<path d="M32.71 38.1367C32.71 39.2937 31.7721 40.2325 30.6143 40.2325C29.4565 40.2325 28.5177 39.2937 28.5177 38.1367C28.5177 36.9789 29.4565 36.0401 30.6143 36.0401C31.7721 36.0401 32.71 36.9789 32.71 38.1367Z" fill="#3D4159"/>
<path d="M20.223 37.7675C20.223 38.2632 19.8213 38.6649 19.3247 38.6649C18.829 38.6649 18.4264 38.2632 18.4264 37.7675C18.4264 37.2709 18.829 36.8692 19.3247 36.8692C19.8213 36.8692 20.223 37.2709 20.223 37.7675Z" fill="white"/>
<path d="M32.3851 37.7675C32.3851 38.2632 31.9825 38.6649 31.4868 38.6649C30.9911 38.6649 30.5885 38.2632 30.5885 37.7675C30.5885 37.2709 30.9911 36.8692 31.4868 36.8692C31.9825 36.8692 32.3851 37.2709 32.3851 37.7675Z" fill="white"/>
<path d="M26.6787 42.5923H22.4863C21.9871 42.5923 21.582 42.188 21.582 41.688C21.582 41.1888 21.9871 40.7836 22.4863 40.7836H26.6787C27.1778 40.7836 27.583 41.1888 27.583 41.688C27.583 42.1871 27.1778 42.5923 26.6787 42.5923Z" fill="#EAB599"/>
<path d="M24.5825 48.3138C23.0359 48.3138 21.4884 47.9258 20.078 47.1508C19.6806 46.9318 19.5349 46.4318 19.7539 46.0343C19.9729 45.636 20.472 45.4912 20.8703 45.7102C23.1954 46.9878 25.9713 46.9878 28.2964 45.7102C28.6938 45.4912 29.1938 45.636 29.412 46.0343C29.6309 46.4318 29.4861 46.9318 29.0878 47.1508C27.6774 47.9258 26.13 48.3138 24.5825 48.3138Z" fill="#EAB599"/>
<path d="M43.0647 25.7905V32.9987H39.6258V27.3535L14.8009 22.7403L9.54816 21.7635V32.9987H6.10925V25.7905C6.10925 17.5736 12.7689 10.9137 20.9839 10.9137H28.1893C28.385 10.9137 28.5807 10.9163 28.7764 10.9266C36.7189 11.2318 43.0647 17.7693 43.0647 25.7905Z" fill="#E8C934"/>
<path d="M43.0603 25.7905V32.9987H39.6214V27.3535L14.7965 22.7403C16.1647 16.1709 21.864 11.193 28.7719 10.9266C36.7144 11.2318 43.0603 17.7693 43.0603 25.7905Z" fill="#FFCD4F"/>
<path d="M80.4794 103.769V107.673C73.2015 111.09 65.0728 113 56.4984 113C52.3552 113 48.3145 112.555 44.4248 111.706C42.8609 111.365 41.3229 110.962 39.8099 110.493C37.0219 109.633 34.3236 108.561 31.739 107.299V103.769C31.739 95.264 37.5133 88.1075 45.3584 86.0091C45.6446 85.9332 45.9326 85.8616 46.2257 85.7996C47.005 85.6306 47.805 85.5133 48.6189 85.4461C49.1146 85.4047 49.6154 85.3866 50.1223 85.3866H62.0934C63.4305 85.3866 64.7357 85.5271 65.9927 85.7996C66.0642 85.8133 66.1384 85.8289 66.2073 85.8452C66.4194 85.8935 66.6315 85.947 66.8393 86.0047C66.8462 86.0047 66.8505 86.0047 66.8548 86.0065C68.9264 86.56 70.8515 87.4669 72.5627 88.6566C77.3474 91.975 80.4794 97.5072 80.4794 103.769Z" fill="#92DCCE"/>
<path d="M80.4805 103.769V107.673C73.2027 111.09 65.074 113 56.4996 113C52.3563 113 48.3157 112.555 44.4259 111.706C42.8621 111.365 41.3241 110.962 39.8111 110.493V103.769C39.8111 95.264 45.5854 88.1075 53.4305 86.0091C53.7167 85.9332 54.0047 85.8616 54.2978 85.7996C55.0771 85.6306 55.8771 85.5133 56.691 85.4461C57.1875 85.4047 57.6875 85.3866 58.1945 85.3866H62.0946C63.4317 85.3866 64.7369 85.5271 65.9938 85.7996C66.0654 85.8133 66.1395 85.8289 66.2085 85.8452C66.4206 85.8935 66.6327 85.947 66.8404 86.0047C66.8473 86.0047 66.8516 86.0047 66.8559 86.0065C68.9276 86.56 70.8526 87.4669 72.5639 88.6566C77.3485 91.975 80.4805 97.5072 80.4805 103.769Z" fill="#B5E4DC"/>
<path d="M66.9041 85.7998L66.8576 86.0067L61.0953 112.815C59.5797 112.938 58.0486 113 56.5012 113C54.6847 113 52.883 112.915 51.1079 112.744L45.3612 86.0093L45.3146 85.7998H66.9041Z" fill="#F2F0EC"/>
<path d="M56.1081 92.9114L47.8328 97.5108L45.3146 85.7997L50.457 82.7711" fill="#D8D5D0"/>
<path d="M56.1056 92.9114L64.3817 97.5108L66.8991 85.7997L61.7575 82.7711" fill="#D8D5D0"/>
<path d="M31.3962 80.9537V53.2295C31.3962 50.4121 31.8661 47.6524 32.7928 45.0264C36.2627 35.1524 45.632 28.5158 56.1065 28.5158C57.4039 28.5158 58.6988 28.6166 59.9566 28.8158C65.7119 29.715 70.9914 32.6523 74.82 37.087C78.6891 41.5692 80.8193 47.3024 80.8193 53.2295V80.9537" fill="#FFCD4F"/>
<path d="M41.5621 54.3123C41.5621 64.119 47.3036 75.4637 50.4572 80.9537H31.3962V53.2295C31.3962 50.4129 31.8661 47.6533 32.7928 45.0264C36.2412 35.2094 45.5251 28.5925 55.9272 28.5184C48.3295 28.7081 41.5621 40.8968 41.5621 54.3123Z" fill="#FFCD4F"/>
<path d="M62.6726 78.3041V86.3529C62.6726 89.2996 60.7294 91.7903 58.0535 92.618C57.4405 92.8076 56.7879 92.9111 56.1129 92.9111C52.4912 92.9111 49.5549 89.9747 49.5549 86.3529V78.3041H62.6726Z" fill="#EAB599"/>
<path d="M62.6654 85.8437V86.3532C62.6654 89.3 60.7222 91.7907 58.0463 92.6184C55.6315 91.8761 53.816 89.7768 53.4806 87.2076C53.9186 87.2343 54.3591 87.2473 54.8022 87.2473C56.0428 87.2473 57.2592 87.149 58.4445 86.955C59.9041 86.7196 61.3153 86.3446 62.6654 85.8437Z" fill="#F6CAAE"/>
<path d="M38.1149 65.112C38.1149 68.1484 35.8967 70.6666 32.9932 71.1339C32.675 71.1848 32.3492 71.2115 32.0155 71.2115C28.6465 71.2115 25.9162 68.482 25.9162 65.112C25.9162 61.7428 28.6465 59.0133 32.0155 59.0133C32.3492 59.0133 32.675 59.04 32.9932 59.0909C35.8967 59.5582 38.1149 62.0756 38.1149 65.112Z" fill="#F6CAAE"/>
<path d="M38.1163 65.1118C38.1163 68.1482 35.8982 70.6664 32.9946 71.1337C32.467 69.2146 32.1851 67.1964 32.1851 65.1118C32.1851 63.0281 32.467 61.0099 32.9946 59.0908C35.8982 59.5581 38.1163 62.0754 38.1163 65.1118Z" fill="#EAB599"/>
<path d="M34.2015 65.1118C34.2015 66.3162 33.2256 67.2921 32.0213 67.2921C30.8178 67.2921 29.8419 66.3162 29.8419 65.1118C29.8419 63.9083 30.8178 62.9324 32.0213 62.9324C33.2256 62.9324 34.2015 63.9083 34.2015 65.1118Z" fill="#EAB599"/>
<path d="M71.7692 57.3243V78.2904C68.5286 81.3837 64.3733 83.5261 59.7499 84.271C59.7137 84.277 59.6749 84.283 59.6387 84.2891C58.4904 84.4727 57.311 84.5641 56.1075 84.5641C43.5752 84.5641 33.4154 74.4039 33.4154 61.8712V53.2292C33.4154 52.1231 33.4947 51.0342 33.6482 49.9704C39.0466 53.8534 46.7882 53.4697 51.7203 48.8073C53.354 47.265 54.4885 45.4278 55.1308 43.4794C55.4877 46.8917 57.0489 50.2126 59.8145 52.8274C63.1077 55.9371 67.4587 57.4372 71.7692 57.3243Z" fill="#EAB599"/>
<path d="M71.7689 57.3243V78.2904C68.5283 81.3837 64.373 83.5261 59.7496 84.271C59.7134 84.277 59.6746 84.283 59.6384 84.2891C48.7846 82.5933 40.4826 73.2004 40.4826 61.8712V53.2292C40.4826 52.999 40.4861 52.7714 40.4947 52.5429C44.4965 52.9525 48.651 51.7093 51.72 48.8073C53.3537 47.265 54.4882 45.4278 55.1305 43.4794C55.4882 46.8917 57.0486 50.2126 59.8142 52.8275C63.1074 55.9371 67.4584 57.4372 71.7689 57.3243Z" fill="#F6CAAE"/>
<path d="M68.3011 59.955C68.3011 57.873 66.614 56.1859 64.5329 56.1859C62.4509 56.1859 60.7638 57.873 60.7638 59.955" fill="#EAB599"/>
<path d="M51.462 59.955C51.462 57.873 49.7748 56.1859 47.6929 56.1859C45.6118 56.1859 43.9246 57.873 43.9246 59.955" fill="#EAB599"/>
<path d="M50.2705 61.5594C50.2705 62.981 49.1179 64.1337 47.6963 64.1337C46.2747 64.1337 45.1221 62.981 45.1221 61.5594C45.1221 60.1378 46.2747 58.9851 47.6963 58.9851C49.1179 58.9851 50.2705 60.1378 50.2705 61.5594Z" fill="#3D4159"/>
<path d="M67.1003 61.5594C67.1003 62.981 65.9477 64.1337 64.5261 64.1337C63.1036 64.1337 61.9519 62.981 61.9519 61.5594C61.9519 60.1378 63.1036 58.9851 64.5261 58.9851C65.9477 58.9851 67.1003 60.1378 67.1003 61.5594Z" fill="#3D4159"/>
<path d="M58.6828 68.0408H53.5344C52.9215 68.0408 52.4241 67.5443 52.4241 66.9304C52.4241 66.3175 52.9215 65.82 53.5344 65.82H58.6828C59.2967 65.82 59.7932 66.3175 59.7932 66.9304C59.7932 67.5443 59.2967 68.0408 58.6828 68.0408Z" fill="#EAB599"/>
<path d="M56.113 75.067C54.2129 75.067 52.3129 74.5903 50.5809 73.6385C50.0921 73.3695 49.9137 72.7565 50.1827 72.2677C50.4508 71.7789 51.0646 71.6004 51.5534 71.8694C54.4086 73.4393 57.8182 73.4393 60.6735 71.8694C61.1614 71.6004 61.7752 71.7789 62.0442 72.2677C62.3132 72.7565 62.1347 73.3695 61.6459 73.6385C59.914 74.5911 58.0139 75.067 56.113 75.067Z" fill="#EAB599"/>
<path d="M49.741 61.1049C49.741 61.7144 49.2478 62.2075 48.6383 62.2075C48.0288 62.2075 47.5357 61.7144 47.5357 61.1049C47.5357 60.4954 48.0288 60.0022 48.6383 60.0022C49.2478 60.0022 49.741 60.4954 49.741 61.1049Z" fill="white"/>
<path d="M66.7022 61.1049C66.7022 61.7144 66.2091 62.2075 65.5996 62.2075C64.9901 62.2075 64.497 61.7144 64.497 61.1049C64.497 60.4954 64.9901 60.0022 65.5996 60.0022C66.2091 60.0022 66.7022 60.4954 66.7022 61.1049Z" fill="white"/>
<path d="M71.5547 67.8294C71.5547 69.3908 70.2891 70.6564 68.7278 70.6564C67.1666 70.6564 65.901 69.3908 65.901 67.8294C65.901 66.2681 67.1666 65.0025 68.7278 65.0025C70.2891 65.0025 71.5547 66.2681 71.5547 67.8294Z" fill="#EAB599"/>
<path d="M46.3147 67.8294C46.3147 69.3908 45.0491 70.6564 43.4879 70.6564C41.9266 70.6564 40.661 69.3908 40.661 67.8294C40.661 66.2681 41.9266 65.0025 43.4879 65.0025C45.0491 65.0025 46.3147 66.2681 46.3147 67.8294Z" fill="#EAB599"/>
</svg>
