<svg width="87" height="82" viewBox="0 0 87 82" fill="none" xmlns="http://www.w3.org/2000/svg">
<g clip-path="url(#clip0_1:439)">
<path d="M45.5456 1.13031C28.2284 1.13031 17.5608 10.7756 17.5315 10.7918C17.5315 10.7918 17.0879 11.3384 17.0052 11.7019C16.3313 14.6551 15.7018 18.6134 15.7018 21.5017C15.7018 46.0424 36.6601 65.9315 61.5129 65.9315C71.0831 65.9315 81.7308 61.4023 88.8568 55.9567C89.0163 55.8348 89.522 55.0164 89.522 55.0164C89.5534 54.827 90.5456 50.9255 90.5456 45.5651C90.5456 21.0244 70.3985 1.13031 45.5456 1.13031Z" fill="#AFE6FF"/>
<path d="M61.5089 64.6772C36.656 64.6772 16.5089 44.7829 16.5089 20.2423C16.5089 16.9986 16.8632 13.8381 17.5315 10.7918C7.18239 18.933 0.545593 31.4839 0.545593 45.5651C0.545593 56.2552 4.36868 66.0636 10.7383 73.7302L80.3529 73.7309C84.7774 68.4078 87.9816 62.037 89.522 55.0163C81.8351 61.0622 72.1001 64.6772 61.5089 64.6772Z" fill="#73C8F0"/>
<path d="M63.9928 36.5324H63.8145L62.5953 30.6135L63.8145 25.7305H63.9928C66.376 25.7305 68.308 27.6383 68.308 29.9915V32.2716C68.308 34.6246 66.3761 36.5324 63.9928 36.5324Z" fill="#FF965A"/>
<path d="M45.9286 78.6404C58.2884 78.6404 68.3081 70.6379 68.3081 60.7663C68.3081 50.8947 58.2884 42.8922 45.9286 42.8922C33.5687 42.8922 23.5491 50.8947 23.5491 60.7663C23.5491 70.6379 33.5687 78.6404 45.9286 78.6404Z" fill="#FF3C3C"/>
<path d="M69.9763 59.0824L69.5587 58.9911L55.2333 58.321C41.4694 57.677 29.9534 68.5225 29.9534 82.1289V87.2557C34.8119 89.028 40.0633 89.9999 45.5455 89.9999C59.4877 89.9999 72.0624 83.7045 80.3528 73.7307V71.8442C80.3528 65.7138 76.038 60.407 69.9763 59.0824Z" fill="#FF3C3C"/>
<path d="M45.9633 75.8167C59.4433 75.8167 70.371 74.0046 70.371 63.2384C70.371 61.7986 70.1738 60.3957 69.8029 59.0447L45.4931 53.7329L21.1072 59.0774C15.0009 60.4158 10.7383 65.7621 10.7383 71.8377V73.7303C15.8138 79.8392 22.5067 84.5879 30.1705 87.339C32.1323 80.6688 38.3807 75.807 45.7735 75.8165C45.8367 75.8167 45.9 75.8167 45.9633 75.8167Z" fill="#DC1428"/>
<path d="M68.3081 60.7663C68.3081 70.6378 58.2884 72.2993 45.9286 72.2993C33.5687 72.2993 23.5491 70.6378 23.5491 60.7663C23.5491 50.8948 33.5687 42.8922 45.9286 42.8922C58.2884 42.8922 68.3081 50.8946 68.3081 60.7663Z" fill="#FF3C3C"/>
<path d="M61.3145 58.3488C61.3145 65.1354 54.426 70.6372 45.9285 70.6372C37.431 70.6372 30.5425 65.1356 30.5425 58.3488C30.5425 51.562 37.431 53.2049 45.9285 53.2049C54.426 53.2049 61.3145 51.5621 61.3145 58.3488Z" fill="#DC1428"/>
<path d="M45.5886 67.1444C49.1689 67.1444 52.0711 64.2785 52.0711 60.7433V46.4055H39.1059V60.7432C39.1059 64.2785 42.0083 67.1444 45.5886 67.1444Z" fill="#FF965A"/>
<path d="M43.4571 59.5876C43.4575 59.5876 43.4577 59.5875 43.458 59.5873C41.9515 59.5078 40.4947 59.2467 39.1061 58.8305V46.4055H50.9956L52.0713 55.9908C50.4747 58.5284 46.0124 59.7227 43.4571 59.5876Z" fill="#EF6A30"/>
<path d="M63.1743 23.9465C63.1743 18.1048 59.3791 12.7631 53.4632 12.7631H37.7139C36.0259 12.7631 34.4798 13.1993 33.131 13.9567V44.833C33.131 51.5723 38.6204 57.0873 45.445 57.1383C45.4928 57.1387 45.5408 57.1389 45.5886 57.1389C55.7531 57.1389 63.9928 49.0024 63.9928 38.9657V33.2285L63.1743 23.9465Z" fill="#FFBE82"/>
<path d="M63.9929 33.1793V29.0834C64.8965 29.0834 65.6292 29.8067 65.6292 30.6991V31.5637C65.6292 32.456 64.8966 33.1793 63.9929 33.1793Z" fill="#EF6A30"/>
<path d="M22.6868 32.2714C22.6868 34.6246 24.6189 36.5324 27.002 36.5324H27.279L29.4881 31.9369L27.3159 25.7305H27.0018C24.6187 25.7305 22.6866 27.6383 22.6866 29.9915V32.2714H22.6868Z" fill="#FF965A"/>
<path d="M25.2468 31.5951C25.2468 32.5523 26.0326 33.3284 27.0021 33.3284V28.9342C26.0326 28.9342 25.2468 29.7102 25.2468 30.6675V31.5951Z" fill="#EF6A30"/>
<path d="M24.0685 33.5501C24.0685 35.1499 25.382 36.4468 27.0021 36.4468V30.6886C25.382 30.6886 24.0685 31.9856 24.0685 33.5853V33.5501Z" fill="white"/>
<path d="M37.6367 32.1746V33.4561C37.6367 34.2919 38.3231 34.9697 39.1696 34.9697C40.0161 34.9697 40.7025 34.2919 40.7025 33.4561V32.1746H37.6367Z" fill="#FF965A"/>
<path d="M50.1264 32.1746V33.4561C50.1264 34.2919 50.8128 34.9697 51.6593 34.9697C52.5058 34.9697 53.1922 34.2919 53.1922 33.4561V32.1746H50.1264Z" fill="#FF965A"/>
<path d="M39.1696 33.7576C38.3231 33.7576 37.6367 33.0798 37.6367 32.244V30.2969L38.2018 29.452L37.6367 28.6072V28.1043C37.6367 27.2684 38.3231 26.5907 39.1696 26.5907C40.0161 26.5907 40.7025 27.2684 40.7025 28.1043V32.244C40.7025 33.0798 40.0161 33.7576 39.1696 33.7576Z" fill="#373C41"/>
<path d="M51.6593 33.7576C50.8128 33.7576 50.1264 33.0798 50.1264 32.244V30.2969L50.6915 29.452L50.1264 28.6072V28.1043C50.1264 27.2684 50.8128 26.5907 51.6593 26.5907C52.5058 26.5907 53.1922 27.2684 53.1922 28.1043V32.244C53.1922 33.0798 52.5058 33.7576 51.6593 33.7576Z" fill="#373C41"/>
<path d="M41.189 25.8339H36.7188C35.8723 25.8339 35.1859 25.1562 35.1859 24.3203C35.1859 23.4844 35.8723 22.8066 36.7188 22.8066H41.189C42.0355 22.8066 42.7218 23.4844 42.7218 24.3203C42.7218 25.1562 42.0355 25.8339 41.189 25.8339Z" fill="#373C41"/>
<path d="M53.9629 25.8339H49.4927C48.6461 25.8339 47.9598 25.1562 47.9598 24.3203C47.9598 23.4844 48.6461 22.8066 49.4927 22.8066H53.9629C54.8094 22.8066 55.4957 23.4844 55.4957 24.3203C55.4957 25.1562 54.8094 25.8339 53.9629 25.8339Z" fill="#373C41"/>
<path d="M51.2327 42.1313H49.6544L45.4976 42.9834L41.3408 42.1313H39.9445C39.4761 42.1313 39.1019 42.535 39.1644 42.9935C39.2839 43.8704 39.5833 44.691 40.0246 45.418L48.4415 47.8809C50.3423 46.9596 51.7195 45.1461 52.0129 42.9935C52.0753 42.535 51.7011 42.1313 51.2327 42.1313Z" fill="#BE1423"/>
<path d="M61.0027 17.6241C61.1786 17.6242 61.3523 17.6158 61.525 17.6031C59.8726 14.7405 57.0612 12.7628 53.4632 12.7628H37.7139C36.0259 12.7628 34.4798 13.1991 33.131 13.9564V14.3432C29.6684 15.9385 27.4078 19.3541 27.4078 23.5457L27.0022 33.228V38.7855C27.0022 49.2748 35.9026 57.6709 46.5862 57.112C38.8485 54.8932 33.1925 47.8422 33.1925 39.486C33.2386 38.4533 33.1925 28.4475 33.1925 24.6467C33.1925 24.6196 33.1927 24.5926 33.1929 24.5655C33.2223 20.6999 36.4479 17.5999 40.3627 17.6038L61.0027 17.6241Z" fill="#FF965A"/>
<path d="M43.1049 35.9059C42.7239 37.4085 43.4163 39.0452 44.7407 39.5385C45.0072 39.6379 45.2922 39.6916 45.5886 39.6916C45.8849 39.6916 46.1701 39.6379 46.4366 39.5385C47.7609 39.0452 48.4535 37.4085 48.0724 35.9059L46.8092 30.9248C46.4912 29.6707 44.6863 29.6707 44.3683 30.9248L43.1049 35.9059Z" fill="#FF965A"/>
<path d="M63.9929 13.8637V24.0423V24.0429V33.2283C62.6315 33.2283 61.5277 32.1385 61.5277 30.7941V20.0459C61.5277 17.6719 60.1747 15.4837 58.0127 14.4453C57.9597 14.4197 57.9067 14.3949 57.8539 14.3708V13.8639H63.9929V13.8637Z" fill="#262A2D"/>
<path d="M38.2018 30.8545C37.8896 30.8545 37.6367 30.6048 37.6367 30.2965V28.6068C37.6367 28.2986 37.8896 28.0488 38.2018 28.0488C38.5139 28.0488 38.7668 28.2986 38.7668 28.6068V30.2965C38.7668 30.6048 38.5137 30.8545 38.2018 30.8545Z" fill="white"/>
<path d="M50.6915 30.8545C50.3793 30.8545 50.1264 30.6048 50.1264 30.2965V28.6068C50.1264 28.2986 50.3793 28.0488 50.6915 28.0488C51.0036 28.0488 51.2565 28.2986 51.2565 28.6068V30.2965C51.2565 30.6048 51.0036 30.8545 50.6915 30.8545Z" fill="white"/>
<path d="M40.0252 45.4172C41.158 47.2829 43.2253 48.5322 45.5884 48.5322C46.6122 48.5322 47.5801 48.2971 48.4408 47.8798C48.0707 45.5875 46.0602 43.8354 43.6346 43.8354C42.203 43.8353 40.916 44.4457 40.0252 45.4172Z" fill="#FF3C3C"/>
<path d="M48.7399 43.8353H42.2551C41.7502 43.8353 41.3406 43.4311 41.3406 42.9323V42.131H49.6544V42.9323C49.6543 43.4311 49.2449 43.8353 48.7399 43.8353Z" fill="white"/>
<path d="M48.2752 0.0179648C43.0079 0.0227202 38.7735 4.29252 38.8671 9.49297C38.9071 11.7088 38.9677 13.9243 39.0601 16.1389C39.0608 16.1572 39.0617 16.1755 39.0624 16.1938L61.0028 16.2151C64.8205 16.2188 67.9173 13.164 67.9173 9.39417V0L48.2752 0.0179648Z" fill="#373C41"/>
<path d="M39.1316 10.394C39.1316 4.6726 43.8259 0.0331115 49.6201 0.0278278L67.9171 0.0110959V0L37.4905 0.0278278C31.6963 0.0331115 27.0021 4.67278 27.0021 10.394V24.0425V24.043V33.2285C28.3635 33.2285 29.4673 32.1386 29.4673 30.7943V20.046C29.4673 20.0318 29.4673 20.0175 29.4674 20.0034C29.4821 17.8816 31.2695 16.1864 33.4184 16.1886L39.1318 16.194V10.394H39.1316Z" fill="#262A2D"/>
<path d="M37.0999 86.5487C36.5089 86.5487 36.0297 86.0754 36.0297 85.4919V73.279C36.0297 72.6955 36.5089 72.2223 37.0999 72.2223C37.6908 72.2223 38.17 72.6955 38.17 73.279V85.4919C38.17 86.0754 37.691 86.5487 37.0999 86.5487Z" fill="#DC1428"/>
<path d="M37.0999 83.9066C36.5089 83.9066 36.0297 83.4333 36.0297 82.8498V70.637C36.0297 70.0534 36.5089 69.5802 37.0999 69.5802C37.6908 69.5802 38.17 70.0534 38.17 70.637V82.8498C38.17 83.4335 37.691 83.9066 37.0999 83.9066Z" fill="white"/>
<path d="M54.5807 86.5487C53.9898 86.5487 53.5105 86.0754 53.5105 85.4919V73.279C53.5105 72.6955 53.9898 72.2223 54.5807 72.2223C55.1716 72.2223 55.6509 72.6955 55.6509 73.279V85.4919C55.6509 86.0754 55.1718 86.5487 54.5807 86.5487Z" fill="#DC1428"/>
<path d="M54.5807 83.9066C53.9898 83.9066 53.5105 83.4333 53.5105 82.8498V70.637C53.5105 70.0534 53.9898 69.5802 54.5807 69.5802C55.1716 69.5802 55.6509 70.0534 55.6509 70.637V82.8498C55.6509 83.4335 55.1718 83.9066 54.5807 83.9066Z" fill="white"/>
<path d="M26.1892 40.4841C25.746 40.4841 25.3866 40.1292 25.3866 39.6915V33.7572C25.3866 33.3195 25.746 32.9646 26.1892 32.9646C26.6325 32.9646 26.9919 33.3195 26.9919 33.7572V39.6915C26.9919 40.1294 26.6325 40.4841 26.1892 40.4841Z" fill="white"/>
<path d="M66.9264 33.9907C66.9264 35.5904 65.613 36.8874 63.9929 36.8874V31.1292C65.613 31.1292 66.9264 32.4261 66.9264 34.0259V33.9907Z" fill="white"/>
<path d="M64.8056 40.9248C64.3624 40.9248 64.003 40.5699 64.003 40.1322V34.1978C64.003 33.7602 64.3624 33.4053 64.8056 33.4053C65.2489 33.4053 65.6083 33.7602 65.6083 34.1978V40.1322C65.6083 40.5699 65.249 40.9248 64.8056 40.9248Z" fill="white"/>
</g>
<defs>
<clipPath id="clip0_1:439">
<rect width="86.8782" height="82" fill="white"/>
</clipPath>
</defs>
</svg>
