<svg width="101" height="114" viewBox="0 0 101 114" fill="none" xmlns="http://www.w3.org/2000/svg">
<path d="M69.4713 26.2184L41.7996 71.336L37.8782 107.43L78.8557 113.21L85.6809 49.429L69.4713 26.2184Z" fill="#A7E0ED"/>
<path d="M98.0296 2.83202C96.4777 1.08586 94.3414 0.118028 92.1547 0.0101231C89.7749 -0.10729 87.3356 0.794427 85.5247 2.83202L65.0697 25.9238L67.097 28.2048L69.238 30.6139L75.3123 23.7009C81.0757 27.9883 88.8629 27.2169 93.8613 21.5927L98.0296 16.9026C101.478 13.022 101.478 6.71242 98.0296 2.83202ZM93.8613 12.2123L89.693 16.9024C86.9726 19.9633 82.9138 20.611 79.6262 18.8458L89.693 7.52215C90.8444 6.22662 92.7099 6.22662 93.8613 7.52215C95.0099 8.81458 95.0099 10.9198 93.8613 12.2123Z" fill="#516373"/>
<path d="M75.3124 23.7007C81.0758 27.9881 88.863 27.2167 93.8614 21.5925L98.0297 16.9024C101.478 13.022 101.478 6.71247 98.0297 2.83209C96.4778 1.08593 94.3415 0.118098 92.1549 0.0101929L67.097 28.2048L69.2381 30.6139L75.3124 23.7007ZM89.6933 7.5222C90.8447 6.22668 92.7102 6.22668 93.8616 7.5222C95.0102 8.81463 95.0102 10.9199 93.8616 12.2123L89.6933 16.9024C86.9729 19.9633 82.9141 20.611 79.6265 18.8458L89.6933 7.5222Z" fill="#3E4D59"/>
<path d="M69.9566 24.9841H40.9207L0 70.8676L14.5905 87.2847L29.1808 103.702L69.9596 57.7859V24.9841H69.9566Z" fill="#5EBFCF"/>
<path d="M70.959 57.786V24.9841L15.5898 87.2847L30.1802 103.702L70.959 57.786Z" fill="#5EBFCF"/>
<path d="M54.646 47.029L52.5065 44.6217L50.4777 42.3389L45.8876 47.5035C42.6086 45.7657 38.6002 46.328 35.8887 49.3739C32.4589 53.2331 32.4416 59.4958 35.8337 63.3815C37.1244 64.8603 36.9682 66.9229 35.8887 68.1375C34.7487 69.4202 32.845 69.4697 31.6667 68.07C30.5747 66.7727 30.5908 64.7183 31.7204 63.4473L27.5464 58.7572C24.8441 61.8055 24.3439 66.3146 25.8886 70.0059L21.2968 75.1725L23.3256 77.4553L25.4651 79.8626L30.0547 74.6984C33.8783 76.7309 37.6591 75.5256 40.057 72.8276C43.2296 69.2579 43.7959 63.2037 40.0035 58.6898C38.9115 57.3896 38.9276 55.3383 40.057 54.0673C41.184 52.7928 43.0169 52.778 44.1671 54.005C45.3844 55.3038 45.3832 57.4513 44.2253 58.7575L48.3936 63.4476C51.1032 60.3988 51.6047 55.8869 50.0567 52.1927L54.646 47.029Z" fill="#FFCD4F"/>
<path d="M44.2255 58.7572L48.3938 63.4473C51.1033 60.3985 51.6048 55.8867 50.0569 52.1925L54.6461 47.0287L52.5066 44.6214L44.1673 54.0047C45.3843 55.3036 45.3833 57.4511 44.2255 58.7572Z" fill="#FFCD4F"/>
<path d="M30.055 74.6985C33.8787 76.731 37.6594 75.5257 40.0573 72.8276C43.2299 69.2579 43.7963 63.2038 40.0039 58.6899L35.834 63.3818C37.1247 64.8608 36.9685 66.9232 35.889 68.1378C34.749 69.4205 32.8454 69.47 31.6671 68.0703L23.3259 77.4556L25.4654 79.8629L30.055 74.6985Z" fill="#FFCD4F"/>
</svg>
