<svg width="104" height="116" viewBox="0 0 104 116" fill="none" xmlns="http://www.w3.org/2000/svg">
<path d="M75.5982 84.0492L78.2006 83.4173L85.8057 109.034C86.181 110.298 84.8594 111.437 83.4772 111.041L72.7766 107.971L65.2109 115.459C64.2337 116.426 62.4579 116.036 62.0823 114.772L54.9286 90.6814L75.5982 84.0492Z" fill="#A7E0ED"/>
<path d="M27.5657 84.0864L48.1543 90.71L41.0108 114.772C40.6353 116.036 38.8595 116.426 37.8822 115.459L30.3168 107.971L19.6159 111.041C18.2335 111.437 16.9119 110.298 17.2874 109.034L24.887 83.4409C24.887 83.4411 27.5657 84.0864 27.5657 84.0864Z" fill="#A7E0ED"/>
<path d="M88.4397 80.9336L76.0751 83.934C75.764 84.0094 75.4804 84.1576 75.2527 84.3633L66.2066 92.5416C65.7435 92.9603 65.068 93.1243 64.4344 92.9716L52.064 89.9902C51.7527 89.9153 51.4251 89.9155 51.1141 89.9909L38.7494 92.9913C38.1163 93.1449 37.4403 92.982 36.9764 92.564L27.915 84.3996C27.6871 84.1941 27.4032 84.0466 27.0919 83.9716L14.7215 80.9903C14.0882 80.8376 13.5929 80.3915 13.4227 79.8201L10.0983 68.6607C10.0147 68.38 9.85055 68.124 9.62262 67.9185L0.56125 59.7541C0.0973498 59.3361 -0.0843943 58.7264 0.0847987 58.1545L3.38808 46.9898C3.47117 46.7088 3.47092 46.4132 3.38733 46.1324L0.0629588 34.9729C-0.107238 34.4015 0.0732514 33.7913 0.536399 33.3727L9.58245 25.1944C9.81013 24.9887 9.97355 24.7325 10.0566 24.4515L13.3599 13.2867C13.5291 12.7151 14.0234 12.2681 14.6565 12.1145L27.0211 9.11412C27.3322 9.03868 27.6158 8.89051 27.8435 8.68479L36.8896 0.50655C37.3527 0.087862 38.0282 -0.0761695 38.6618 0.0765338L51.0322 3.05787C51.3435 3.13287 51.6711 3.13264 51.9821 3.05719L64.3468 0.0568229C64.9799 -0.0967867 65.6559 0.0661119 66.1198 0.48412L75.1812 8.64854C75.4091 8.85403 75.693 9.00152 76.0043 9.07651L88.3747 12.0579C89.008 12.2106 89.5033 12.6567 89.6735 13.2281L92.9979 24.3876C93.0815 24.6683 93.2457 24.9244 93.4736 25.1298L102.535 33.2943C102.999 33.7123 103.181 34.322 103.011 34.8938L99.7081 46.0586C99.625 46.3395 99.6253 46.6352 99.7089 46.9159L103.033 58.0755C103.203 58.6469 103.023 59.257 102.56 59.6757L93.5138 67.8539C93.2861 68.0596 93.1227 68.3159 93.0396 68.5968L89.7363 79.7616C89.5671 80.3332 89.0731 80.78 88.4397 80.9336Z" fill="#66BAED"/>
<path d="M51.5492 82.0163C73.2677 82.0163 90.874 66.1259 90.874 46.5241C90.874 26.9223 73.2677 11.0319 51.5492 11.0319C29.8307 11.0319 12.2244 26.9223 12.2244 46.5241C12.2244 66.1259 29.8307 82.0163 51.5492 82.0163Z" fill="#FFCD4F"/>
<path d="M60.7251 81.044C57.781 81.6805 54.7084 82.0164 51.5492 82.0164C29.8312 82.0164 12.2244 66.1253 12.2244 46.5242C12.2244 26.9232 29.8312 11.032 51.5492 11.032C54.7084 11.032 57.781 11.368 60.7251 12.0045C43.4327 15.7334 30.576 29.7742 30.576 46.5242C30.576 63.2743 43.4325 77.315 60.7251 81.044Z" fill="#FFCD4F"/>
<path d="M67.3748 60.367H69.3916C71.6192 60.367 73.4249 61.9966 73.4249 64.0072C73.4249 66.0177 71.6192 67.6474 69.3916 67.6474H47.7592C46.6697 67.6474 45.6157 67.3143 44.7511 66.716C42.4711 65.1379 40.0582 64.8038 37.1254 64.6465V41.4987C44.0224 34.3865 52.7627 33.7181 52.151 23.09C52.045 21.251 53.6689 19.7067 55.7093 19.7067C57.2699 19.7067 58.6576 20.6209 59.1132 21.9683C60.9643 27.4446 61.4272 32.8794 58.9835 38.5258H73.7331C75.9608 38.5258 77.7664 40.1555 77.7664 42.166C77.7664 44.1765 75.9608 45.8062 73.7331 45.8062H68.7156H72.3673C74.5949 45.8062 76.4006 47.4358 76.4006 49.4464C76.4006 51.4569 74.5949 53.0866 72.3673 53.0866H68.7156H71.0266C73.2542 53.0866 75.0598 54.7162 75.0598 56.7268C75.0598 58.7373 73.2542 60.367 71.0266 60.367H67.3748Z" fill="#FFF3DE"/>
<path d="M37.1251 38.9976V41.4986L38.436 42.4615V63.3427L37.1251 64.6463V66.9534C37.1251 67.8683 36.3035 68.6098 35.2899 68.6098H20.7659C15.4177 62.5477 12.2244 54.872 12.2244 46.5243C12.2244 43.349 12.6858 40.2704 13.5536 37.3412H35.2896C36.3035 37.3412 37.1251 38.0828 37.1251 38.9976Z" fill="#8AC9FE"/>
<path d="M69.2494 40.6602H71.2662C73.4938 40.6602 75.2995 42.2899 75.2995 44.3004C75.2995 46.311 73.4938 47.9406 71.2662 47.9406H49.6338C48.5444 47.9406 47.4903 47.6076 46.6257 47.0092C44.3457 45.4312 41.9328 45.097 39 44.9398V21.792C45.897 14.6797 54.6373 14.0114 54.0256 3.38327C53.9196 1.54426 55.5435 0 57.5839 0C59.1445 0 60.5322 0.914183 60.9878 2.26156C62.8389 7.73783 63.3018 13.1726 60.8581 18.8191H75.6077C77.8354 18.8191 79.641 20.4487 79.641 22.4593C79.641 24.4698 77.8354 26.0994 75.6077 26.0994H70.5902H74.2419C76.4695 26.0994 78.2752 27.7291 78.2752 29.7396C78.2752 31.7502 76.4695 33.3798 74.2419 33.3798H70.5902H72.9012C75.1288 33.3798 76.9344 35.0095 76.9344 37.02C76.9344 39.0306 75.1288 40.6602 72.9012 40.6602H69.2494Z" fill="#F1B0A2"/>
<path d="M60.6006 32.065C57.9161 34.8891 53.8376 36.7369 50.0581 40.0812C49.1115 40.9188 48.571 42.0611 48.571 43.2574V60.7251C48.571 62.7825 50.1123 64.6029 52.3294 65.0807C54.1343 65.4698 55.7665 66.197 57.3648 67.6468H47.7585C46.6695 67.6468 45.6154 67.314 44.7511 66.7161C42.4708 65.1387 40.0577 64.8041 37.1254 64.6467V41.4993C44.0272 34.3818 52.775 33.7178 52.1487 23.0673C52.0425 21.2374 53.6774 19.707 55.7083 19.707C56.4882 19.707 57.2272 19.9358 57.8257 20.3327C58.4242 20.7297 58.8853 21.2934 59.1125 21.9678C60.2491 25.3296 60.8624 28.6752 60.6006 32.065Z" fill="#EB9C8D"/>
<path d="M78.3161 88.2893L68.3335 97.3144C67.8706 97.7329 67.6901 98.3421 67.8595 98.9133L71.0541 109.675L65.2109 115.458C64.2337 116.426 62.4577 116.036 62.0824 114.771L54.9286 90.6813L64.432 92.9717C65.0663 93.123 65.7429 92.9599 66.2043 92.541L75.2516 84.3636C75.4798 84.1577 75.7629 84.0086 76.0747 83.9329L78.2009 83.4171L79.559 87.9884L78.3161 88.2893Z" fill="#5EBFCF"/>
<path d="M48.1543 90.709L46.5866 95.9879L36.8756 98.3467C36.4346 98.4538 35.9639 98.3403 35.6406 98.049C34.945 97.4218 33.7581 97.7091 33.5033 98.5664L30.6205 108.273L30.3165 107.97L19.616 111.04C18.2336 111.437 16.9119 110.297 17.2875 109.033L24.8871 83.4402L27.0918 83.9701C27.4011 84.0458 27.687 84.1926 27.9125 84.3983L36.9756 92.5639C37.4397 92.9803 38.116 93.1437 38.7478 92.9898L48.1543 90.709Z" fill="#5EBFCF"/>
</svg>
